<svg version="1.1" id="Layer_1" xmlns="http://www.w3.org/2000/svg" xmlns:xlink="http://www.w3.org/1999/xlink" x="0px" y="0px"
	 width="100%" viewBox="0 0 167 167" enable-background="new 0 0 167 167" xml:space="preserve">
<path fill="#000000" opacity="1.000000" stroke="none" 
	d="
M109.000000,168.000000 
	C73.859299,168.000000 39.218502,167.966187 4.578078,168.064484 
	C1.821654,168.072296 0.891118,167.792175 0.899574,164.582886 
	C1.040445,111.123322 1.030087,57.663219 0.916830,4.203528 
	C0.910759,1.338281 1.613658,0.924335 4.291906,0.929092 
	C57.751667,1.024056 111.211678,1.021565 164.671463,0.934666 
	C167.273727,0.930436 168.094330,1.222877 168.087738,4.166895 
	C167.967529,57.793098 167.976471,111.419678 168.071411,165.045990 
	C168.076019,167.652435 167.350616,168.070923 164.958069,168.057434 
	C146.472519,167.953186 127.986130,168.000000 109.000000,168.000000 
z"/>
<path fill="#6D483E" opacity="1.000000" stroke="none" 
	d="
M82.763580,39.392723 
	C90.084595,38.927505 97.677650,35.753933 103.763306,42.955940 
	C105.313148,44.039467 107.182678,42.781380 108.127762,44.681007 
	C113.036102,49.479649 119.105881,53.208561 119.032745,61.555992 
	C118.181442,63.848164 116.564651,65.240944 115.340111,67.283340 
	C112.257454,67.811638 112.179527,70.802055 110.120094,72.312592 
	C107.518265,72.456284 106.619308,71.140671 106.652740,69.065140 
	C106.678932,67.439484 106.598892,65.853279 105.809036,64.039421 
	C105.645439,63.528965 105.604546,63.323391 105.525703,62.826164 
	C105.380875,62.055664 105.259064,61.586636 104.491051,61.391506 
	C103.729538,61.459854 103.204918,61.501369 102.435608,61.817284 
	C99.115509,65.255959 95.858162,62.639935 92.356491,62.127430 
	C90.368744,60.711399 90.560852,59.056931 91.010323,57.016045 
	C90.482613,54.669109 89.084480,56.201626 87.787659,55.927525 
	C87.217560,55.801895 86.997925,55.716652 86.493256,55.422531 
	C84.458649,51.906563 81.759064,54.750309 79.296188,54.245537 
	C78.818512,54.337757 78.629776,54.375153 78.165688,54.505043 
	C76.852943,54.999439 75.756950,55.185658 74.673569,55.521770 
	C74.856331,55.637508 75.044518,55.718609 75.459488,55.982391 
	C76.601845,57.331539 77.091385,58.925240 79.144180,59.453110 
	C79.964951,59.752998 80.384773,60.019417 80.970657,60.693321 
	C81.730515,62.525898 81.398743,64.098839 81.494949,66.013580 
	C80.883308,69.621773 77.063469,68.668076 75.535202,71.186745 
	C74.612709,73.171692 73.230896,73.984161 71.145676,74.374496 
	C70.165733,74.714554 69.529739,74.980644 68.547974,75.272720 
	C67.554115,75.392616 66.907593,75.305458 65.980072,75.018028 
	C65.484039,74.903763 65.281288,74.884010 64.771347,74.869843 
	C64.257858,74.895988 64.051559,74.916550 63.534992,74.987411 
	C61.574081,75.291740 60.467709,77.436165 58.168003,76.240814 
	C57.886772,76.068962 57.423630,75.962273 57.197823,75.888222 
	C56.454159,75.144836 56.343719,74.399185 56.753864,73.252487 
	C56.951748,72.911888 56.865368,72.952209 56.845192,72.909027 
	C57.545383,72.585052 57.578686,72.042618 57.118397,71.256523 
	C54.414471,69.350258 56.791874,67.667137 56.984768,65.984344 
	C57.544388,61.102390 59.248993,56.415131 60.375149,51.809921 
	C61.953934,45.353748 66.670334,45.542313 70.624878,43.144363 
	C71.135178,43.292957 71.283981,43.415661 71.659988,43.704094 
	C72.071671,43.912132 72.256149,43.954445 72.728775,43.943581 
	C75.671410,41.330421 80.142281,42.813633 82.763580,39.392723 
z"/>
<path fill="#262628" opacity="1.000000" stroke="none" 
	d="
M98.227966,162.031708 
	C97.597267,162.225204 97.374649,162.453171 97.058868,162.922821 
	C93.502495,162.824478 90.060829,163.497040 86.325821,162.653961 
	C83.852402,158.868134 88.433548,158.088470 89.049530,155.232971 
	C89.346497,154.690628 89.494995,154.492020 89.926308,154.055695 
	C96.998360,151.544540 98.619370,149.800568 98.884079,144.315567 
	C100.344368,140.826736 100.914909,137.200363 104.378891,135.459061 
	C106.010895,134.638657 107.768890,134.159470 109.974075,135.087219 
	C112.635292,141.884048 116.927460,147.911865 115.985413,155.792770 
	C114.374306,158.638046 111.381149,158.238724 108.915192,159.712921 
	C106.479370,160.605057 104.286598,160.976837 101.815697,161.714157 
	C100.517433,162.024963 99.549934,161.985001 98.227966,162.031708 
z"/>
<path fill="#9B8F85" opacity="1.000000" stroke="none" 
	d="
M110.363144,136.345398 
	C103.823425,135.976593 102.747993,140.998032 100.575974,145.435135 
	C97.725502,145.312042 96.043488,143.762543 94.488228,141.701218 
	C93.316109,140.147736 91.944649,138.120132 88.934700,139.330978 
	C85.061661,139.349380 82.669998,137.866089 81.967422,133.831024 
	C82.913132,131.152527 84.984276,129.662598 86.309570,127.207863 
	C91.132668,126.242935 95.531898,125.247383 99.096748,122.057350 
	C99.983551,121.263794 101.089439,120.962349 102.556648,121.778519 
	C108.724228,124.119659 110.634392,129.445786 113.150146,134.753815 
	C112.806999,136.185501 111.955864,136.704620 110.363144,136.345398 
z"/>
<path fill="#6B4946" opacity="1.000000" stroke="none" 
	d="
M103.013405,121.744339 
	C98.184334,124.915459 93.535721,127.802353 87.495270,128.404419 
	C86.622810,128.715103 86.142159,128.926285 85.283409,129.248688 
	C81.089256,130.169739 77.694839,129.211777 74.288826,126.722092 
	C72.051987,125.878517 71.071838,123.865448 68.824951,123.056992 
	C67.430046,121.585114 66.406090,120.269051 65.916473,118.269089 
	C65.672363,117.452812 65.421265,116.995094 65.079735,116.287933 
	C63.921211,113.994682 64.955666,113.430664 67.163834,113.500351 
	C67.742188,113.606041 67.970413,113.657692 68.517136,113.850815 
	C69.550964,114.548302 70.188622,115.200531 71.222061,115.900421 
	C72.074524,116.468704 72.756371,116.631683 73.600639,117.235489 
	C78.791092,125.555573 94.379570,126.547379 99.934158,114.867218 
	C100.626137,113.412132 101.675415,112.512924 102.957939,111.200371 
	C104.416756,110.405678 105.334190,109.445847 106.906265,108.813156 
	C108.148338,108.663231 108.902039,108.904205 109.833313,109.751915 
	C108.717865,114.411270 105.914413,117.904488 103.013405,121.744339 
z"/>
<path fill="#232223" opacity="1.000000" stroke="none" 
	d="
M109.922012,136.507599 
	C110.894302,135.877411 111.784203,135.600830 113.003281,135.203110 
	C115.472603,138.560959 119.004494,141.152802 119.973511,145.775864 
	C120.960136,147.357101 120.271431,148.787109 120.681931,150.404251 
	C120.597847,151.545593 120.375755,152.374542 120.099716,153.521149 
	C119.971062,154.874527 119.123505,155.350693 118.212769,156.180374 
	C117.273506,156.550461 116.619255,156.772156 115.645844,156.384476 
	C113.097313,151.130936 112.782661,145.344650 109.407158,140.659103 
	C108.855995,139.894043 109.661293,138.151794 109.922012,136.507599 
z"/>
<path fill="#946461" opacity="1.000000" stroke="none" 
	d="
M110.407974,109.896194 
	C109.338081,110.047020 108.569252,110.035637 107.415863,110.027725 
	C104.370811,107.876343 106.523415,105.947411 107.318474,103.956856 
	C108.832932,100.165199 109.718758,96.431229 106.138580,92.749115 
	C105.619247,91.704193 105.522911,90.948517 105.584366,89.802750 
	C107.333344,86.794968 108.794807,84.094490 107.798340,80.397659 
	C107.609108,78.961884 107.523224,77.907249 108.121262,76.510612 
	C112.157593,75.190689 114.456688,76.693275 114.266647,80.256599 
	C114.181046,81.861687 114.067749,83.485001 113.817032,85.527069 
	C113.819397,87.991379 113.904823,90.022804 114.045822,92.486298 
	C114.246483,94.220848 115.583252,94.469536 116.351662,95.638153 
	C116.975037,97.685936 117.134193,99.397064 115.966759,100.955276 
	C114.957863,102.301872 114.464371,103.741348 115.058456,105.742966 
	C114.983421,108.903320 112.045731,108.356033 110.407974,109.896194 
z"/>
<path fill="#5A3C36" opacity="1.000000" stroke="none" 
	d="
M114.073273,85.786041 
	C111.821457,83.096252 114.562012,77.980087 108.998856,76.864685 
	C108.293808,77.368362 107.793243,77.520302 106.856743,77.247589 
	C105.902252,76.439926 105.611343,75.697441 105.629845,74.452225 
	C105.767128,73.808136 105.851616,73.560471 106.165100,73.001503 
	C106.998802,72.199379 107.684830,72.008095 108.784752,72.203430 
	C110.305710,72.427353 111.187851,72.040276 111.763031,70.553696 
	C112.587967,69.061096 112.472923,67.521492 113.802368,66.250381 
	C115.402664,64.593491 116.274872,62.651619 118.733383,62.039711 
	C119.060135,61.961674 119.023293,61.992458 119.024979,61.970860 
	C119.665077,65.009178 119.640526,68.106201 119.683243,71.546097 
	C119.550949,77.064499 114.881943,80.510887 114.073273,85.786041 
z"/>
<path fill="#805854" opacity="1.000000" stroke="none" 
	d="
M68.282234,114.719055 
	C67.006439,114.997261 65.890770,114.282211 65.071136,115.796417 
	C62.047394,113.189835 61.383873,109.255722 60.021400,105.261322 
	C57.209621,101.803207 54.154068,98.847702 55.304367,93.704376 
	C56.303173,91.997528 56.972000,90.568138 58.012100,88.902939 
	C59.142040,87.653725 58.968033,85.962746 60.890762,85.426483 
	C63.799591,86.096344 63.798439,87.888237 63.684860,90.089310 
	C63.525509,93.177475 63.086033,96.261818 63.421951,99.388947 
	C63.708054,102.052315 64.943077,104.056099 67.061760,106.117004 
	C66.822746,109.278282 69.458145,111.554527 68.282234,114.719055 
z"/>
<path fill="#262628" opacity="1.000000" stroke="none" 
	d="
M47.377586,151.316925 
	C45.508965,147.400650 49.422264,145.531570 49.991219,142.218201 
	C50.501152,141.490387 50.945129,141.153503 51.821754,140.720917 
	C55.492172,139.610840 58.149258,140.553040 59.749378,143.519531 
	C61.229893,146.264313 60.029953,148.569489 57.890110,150.518387 
	C56.913204,151.408096 56.321659,152.625122 55.167587,153.912842 
	C54.420727,154.518158 53.914280,154.671707 52.978092,154.582367 
	C51.231121,153.854965 50.040237,152.868118 48.241180,152.244446 
	C47.916897,152.053894 47.981838,152.042847 47.973862,152.074799 
	C47.834381,151.931824 47.702881,151.756866 47.377586,151.316925 
z"/>
<path fill="#8B8079" opacity="1.000000" stroke="none" 
	d="
M52.339859,141.388168 
	C51.614143,141.684250 51.182903,141.772034 50.421616,141.866180 
	C51.891193,131.870056 54.506695,122.383659 65.557449,117.956047 
	C67.257713,118.649529 68.389839,119.601402 69.260315,121.255280 
	C69.395302,121.778290 69.405510,122.006317 69.241440,122.530182 
	C68.396477,123.452278 67.523262,123.789093 66.559433,124.592865 
	C64.179398,125.935120 61.408619,125.842834 59.806953,128.517197 
	C57.707581,133.168045 55.927425,137.603119 52.339859,141.388168 
z"/>
<path fill="#C78781" opacity="1.000000" stroke="none" 
	d="
M56.967796,92.348038 
	C56.233395,97.149010 60.097900,100.108032 59.926319,104.500435 
	C53.159622,104.011078 50.943226,101.037445 51.104164,92.409889 
	C51.763786,91.336716 52.192513,90.533173 53.344566,90.030060 
	C54.116138,89.882523 54.562897,89.910248 55.322823,90.119064 
	C55.826305,90.359459 56.013157,90.483192 56.424847,90.853889 
	C56.748680,91.298500 56.847672,91.496147 56.967796,92.348038 
z"/>
<path fill="#604038" opacity="1.000000" stroke="none" 
	d="
M61.398998,85.772385 
	C60.444145,86.901299 59.850807,87.797470 59.027473,88.921371 
	C58.375389,89.148689 58.043907,88.980995 57.904663,88.331284 
	C56.174774,84.343468 58.782379,80.626198 57.918091,76.495438 
	C59.679897,74.973648 61.280933,73.506599 63.824974,73.136703 
	C67.153687,77.974609 63.650883,81.600609 61.398998,85.772385 
z"/>
<path fill="#65443B" opacity="1.000000" stroke="none" 
	d="
M71.301270,46.217670 
	C70.989098,45.277626 70.990898,44.575119 70.989532,43.521431 
	C74.245316,40.461948 78.342804,40.076851 82.622101,39.136566 
	C82.994957,41.794910 81.277466,42.820599 79.055084,43.468803 
	C77.182083,44.015106 75.146606,44.151978 73.286446,45.709541 
	C72.640282,46.355957 72.173759,46.529346 71.301270,46.217670 
z"/>
<path fill="#C3807A" opacity="1.000000" stroke="none" 
	d="
M115.430061,105.889145 
	C111.480362,105.732048 111.574287,103.820419 113.175880,101.363777 
	C114.140816,99.883667 115.883690,98.869720 115.842117,96.448555 
	C116.042427,95.975784 116.251587,95.859070 116.785042,95.897003 
	C118.930618,99.590439 117.713730,102.700867 115.430061,105.889145 
z"/>
<path fill="#C8C3C1" opacity="1.000000" stroke="none" 
	d="
M51.946190,153.631317 
	C52.733776,153.881577 53.095921,153.976074 53.738586,154.086029 
	C59.046734,152.335358 62.675423,155.996887 67.245270,157.567978 
	C68.355278,158.087021 68.893188,158.657196 69.313156,159.809494 
	C69.164375,161.180069 68.473915,161.460831 67.223648,161.257690 
	C60.970436,160.578827 56.226967,157.265259 51.005100,154.371857 
	C51.057388,153.863113 51.289070,153.669327 51.946190,153.631317 
z"/>
<path fill="#D1978F" opacity="1.000000" stroke="none" 
	d="
M57.639465,87.942719 
	C58.000294,88.385704 58.137405,88.664268 58.600109,89.014420 
	C58.793961,90.487656 59.744949,92.113739 57.338249,92.917931 
	C56.988934,93.002281 57.000175,93.046722 57.020855,93.035019 
	C56.811546,92.780365 56.571632,92.547600 56.151855,92.140427 
	C55.980515,91.957275 55.985893,92.020096 56.016304,92.011795 
	C55.594501,91.586517 55.009449,91.509285 54.224869,91.187233 
	C53.257450,91.282486 52.510883,91.568031 51.471802,91.919502 
	C51.008327,87.350937 53.535099,86.692871 57.639465,87.942719 
z"/>
<path fill="#AFABAA" opacity="1.000000" stroke="none" 
	d="
M85.225029,161.905319 
	C89.071388,162.881607 92.753029,161.048798 96.586929,162.933838 
	C92.568100,164.957687 88.010658,163.593109 83.159508,163.885086 
	C82.672554,163.515320 82.593559,163.245651 82.585419,162.560486 
	C83.279984,161.396118 84.060638,161.303818 85.225029,161.905319 
z"/>
<path fill="#C2B4B4" opacity="1.000000" stroke="none" 
	d="
M115.117126,156.451630 
	C116.021179,155.995316 116.673218,155.808121 117.636673,155.480560 
	C118.083824,155.593033 118.219543,155.845825 118.170929,156.487518 
	C115.615723,157.916550 113.244827,158.956665 110.510956,160.032776 
	C109.430893,160.572189 108.734749,160.549011 108.053673,159.600311 
	C110.319870,158.383514 112.592484,157.552124 115.117126,156.451630 
z"/>
<path fill="#6B4946" opacity="1.000000" stroke="none" 
	d="
M119.867485,71.503494 
	C118.849274,68.879890 118.174454,65.844902 118.961609,62.309467 
	C121.138634,64.831276 120.427307,67.986168 119.867485,71.503494 
z"/>
<path fill="#C78781" opacity="1.000000" stroke="none" 
	d="
M117.417007,95.885460 
	C116.896973,96.055397 116.684608,96.059151 116.152756,96.077698 
	C114.146606,95.982048 112.768555,95.627556 113.913315,93.172577 
	C115.844620,93.159325 118.192749,92.617775 117.417007,95.885460 
z"/>
<path fill="#AFABAA" opacity="1.000000" stroke="none" 
	d="
M107.691032,159.283646 
	C108.559769,159.462204 109.072281,159.709518 109.866379,160.012802 
	C107.637138,161.855255 104.393982,161.289703 101.389572,162.747589 
	C100.667770,162.518219 100.519920,162.141708 100.799820,161.448380 
	C103.127541,160.591812 105.231171,159.972107 107.691032,159.283646 
z"/>
<path fill="#C2B4B4" opacity="1.000000" stroke="none" 
	d="
M67.067200,161.402481 
	C67.407242,160.859726 67.950302,160.655075 68.729004,160.277969 
	C70.529732,158.117676 72.353401,159.713150 74.414246,159.917236 
	C74.944832,160.287766 75.124878,160.478622 75.430122,161.042358 
	C75.525734,161.675644 75.496162,161.936081 75.234711,162.513992 
	C72.273468,163.544037 69.900909,161.727448 67.067200,161.402481 
z"/>
<path fill="#5A3C36" opacity="1.000000" stroke="none" 
	d="
M56.872955,71.395935 
	C57.636681,70.427689 58.415421,69.753746 59.389675,68.910599 
	C59.844776,71.149193 58.932205,72.102905 57.137268,72.790771 
	C56.846004,72.473976 56.866989,72.082100 56.872955,71.395935 
z"/>
<path fill="#C8C3C1" opacity="1.000000" stroke="none" 
	d="
M75.302368,162.911835 
	C75.024223,162.635529 75.045631,162.439575 75.091721,161.948975 
	C75.940331,160.925690 76.851234,160.413620 78.402390,160.482101 
	C79.340515,160.446854 79.877083,160.425247 80.805313,160.502472 
	C81.721169,160.762756 82.178978,161.035400 82.749130,161.782303 
	C82.894600,162.418106 82.861427,162.690994 82.789902,163.374420 
	C81.627151,163.827271 80.502762,163.869568 79.045891,163.853363 
	C78.402298,163.672379 78.091179,163.549896 77.309494,163.253891 
	C76.426582,163.050964 76.014252,163.021576 75.302368,162.911835 
z"/>
<path fill="#A3978C" opacity="1.000000" stroke="none" 
	d="
M118.310654,156.852539 
	C117.977196,156.620499 117.967781,156.364594 117.953232,155.724457 
	C118.517021,154.954239 119.085938,154.568237 119.850311,154.010513 
	C120.630219,153.818726 121.214676,153.798660 121.799133,153.778595 
	C121.679604,154.205734 121.696541,154.806931 121.415115,155.027588 
	C120.549629,155.706161 119.569969,156.239105 118.310654,156.852539 
z"/>
<path fill="#845D5A" opacity="1.000000" stroke="none" 
	d="
M108.303284,44.843170 
	C106.865410,44.523537 105.724487,44.006420 104.325859,43.305359 
	C105.533867,43.763256 108.062637,41.244308 108.303284,44.843170 
z"/>
<path fill="#AFABAA" opacity="1.000000" stroke="none" 
	d="
M52.120834,153.501968 
	C52.114422,153.834625 51.857212,153.882172 51.212852,153.993317 
	C49.548763,154.321823 48.873142,153.429611 48.025757,152.356171 
	C49.689388,150.895676 50.529636,152.906311 52.120834,153.501968 
z"/>
<path fill="#A3978C" opacity="1.000000" stroke="none" 
	d="
M100.690231,161.166443 
	C101.026070,161.567810 101.028229,161.924103 101.024818,162.547577 
	C100.079811,162.772614 99.140381,162.730453 98.034737,162.366516 
	C98.697861,161.736923 99.527206,161.429138 100.690231,161.166443 
z"/>
<path fill="#7C5247" opacity="1.000000" stroke="none" 
	d="
M56.680801,73.023064 
	C56.959641,73.637604 56.967537,74.363312 56.973724,75.451599 
	C55.217834,75.249519 53.699982,74.635300 56.680801,73.023064 
z"/>
<path fill="#5A443A" opacity="1.000000" stroke="none" 
	d="
M120.886833,150.368835 
	C119.815742,149.572357 119.977623,148.190598 120.028717,146.484787 
	C121.412743,147.176239 121.021805,148.637085 120.886833,150.368835 
z"/>
<path fill="#AFABAA" opacity="1.000000" stroke="none" 
	d="
M76.968422,163.342682 
	C77.154762,163.189911 77.470612,163.299454 78.249939,163.601929 
	C78.174919,163.731583 77.636421,163.668289 76.968422,163.342682 
z"/>
<path fill="#AFABAA" opacity="1.000000" stroke="none" 
	d="
M47.189278,151.295090 
	C47.555458,151.226822 47.927120,151.401688 48.132332,151.841660 
	C47.644173,152.004974 47.387131,151.815460 47.189278,151.295090 
z"/>
<path fill="#754E43" opacity="1.000000" stroke="none" 
	d="
M110.154762,72.944656 
	C109.335693,73.099869 108.670021,73.091263 107.671730,73.069000 
	C106.374008,73.138390 105.364243,73.001099 104.280228,73.872375 
	C99.728973,78.119644 94.567314,80.008904 88.394806,79.995438 
	C86.565971,78.640778 87.758102,76.859543 86.852898,75.232040 
	C84.695312,72.128830 79.901596,72.016510 79.822906,67.294632 
	C79.995255,65.284760 79.997925,63.562267 80.001114,61.409241 
	C78.960876,59.229046 80.019852,58.602074 81.854752,58.223499 
	C82.691734,58.416199 83.146797,58.665668 83.329544,59.127163 
	C83.566933,59.726665 83.490395,60.390766 83.500343,61.030968 
	C83.500824,60.377174 83.499794,59.723324 83.694901,58.728775 
	C86.549301,57.105049 88.918381,54.748798 92.656136,55.738739 
	C92.893822,57.496326 92.814766,59.010426 92.892532,60.798988 
	C94.073647,62.162617 95.449539,62.687298 97.005112,63.493027 
	C97.856468,63.881725 98.429886,63.896572 99.207001,63.379799 
	C100.598579,62.174675 100.881142,60.687927 101.759277,59.198212 
	C102.503929,59.248825 103.005661,59.499706 104.056183,59.976646 
	C105.474915,60.813522 105.794250,61.880692 106.783859,62.788795 
	C109.378120,65.430397 107.618896,69.052589 109.900490,71.977081 
	C110.306313,72.331993 110.308151,72.780830 110.154762,72.944656 
z"/>
<path fill="#B7837E" opacity="1.000000" stroke="none" 
	d="
M61.227695,86.355095 
	C60.341476,81.524338 63.380928,77.979164 64.129822,73.469566 
	C64.177315,73.090752 64.093773,72.999001 64.044098,73.036179 
	C64.264938,72.780174 64.524765,72.477852 64.979462,71.949310 
	C66.762817,71.318527 67.205994,72.522552 67.884811,73.792618 
	C68.447289,74.189163 68.893677,74.357643 69.577293,74.802986 
	C69.928238,75.264244 70.033508,75.470848 70.208534,76.009529 
	C70.496040,79.935020 74.376617,77.729355 75.849815,79.961182 
	C76.576897,81.266457 77.430443,82.156883 77.474167,83.739471 
	C76.514954,86.020851 74.051285,85.284424 72.606743,86.959984 
	C71.543404,87.753014 71.465279,88.737061 70.814209,89.791229 
	C66.467186,92.763351 67.111725,96.615166 68.084381,100.538002 
	C68.613312,102.671249 70.227882,104.714798 68.298897,107.231293 
	C67.532211,107.587906 67.056007,107.579880 66.291885,107.219131 
	C61.909168,104.434486 61.341427,100.353691 61.538155,96.102463 
	C61.683716,92.956886 62.266068,89.830246 61.227695,86.355095 
z"/>
<path fill="#7C5247" opacity="1.000000" stroke="none" 
	d="
M92.979401,55.582283 
	C89.864845,55.925385 87.838455,58.884022 84.397202,58.955490 
	C83.864777,59.206646 83.701035,59.428341 83.275742,59.329887 
	C81.906769,59.091019 80.856232,59.285599 80.132172,60.684719 
	C79.559258,60.980923 79.116890,60.983139 78.342773,60.985664 
	C76.841309,60.034569 76.432228,58.529087 75.212372,57.231110 
	C74.241066,57.010002 73.493538,57.008980 72.372253,57.006565 
	C71.332214,56.338631 71.244560,55.554417 71.767593,54.351410 
	C73.906250,53.851257 75.740883,53.564381 76.875565,51.315449 
	C76.779114,50.440834 76.919617,49.997841 77.764717,49.856003 
	C79.840645,50.582500 81.393631,54.380913 83.389961,50.258465 
	C83.995796,49.007408 84.606697,47.109543 86.557083,47.909111 
	C88.235046,48.596996 87.965164,50.352444 87.741371,51.844120 
	C87.619011,52.659733 87.353233,53.453835 87.076248,54.629124 
	C89.669067,54.423851 89.930298,51.312317 92.054710,50.030270 
	C93.586853,51.628284 92.766960,53.500095 92.979401,55.582283 
z"/>
<path fill="#7C5247" opacity="1.000000" stroke="none" 
	d="
M97.355156,55.065086 
	C96.715897,53.540302 96.349297,52.097496 96.153740,50.631863 
	C96.040581,49.783794 96.652908,48.508774 97.315575,48.881145 
	C99.392326,50.048126 101.915115,49.277683 103.674156,50.291840 
	C104.888878,50.992180 107.187309,52.563053 106.573494,54.323326 
	C105.890541,56.281807 103.473640,56.641071 101.442474,56.390091 
	C100.162796,56.231968 98.945084,55.572220 97.355156,55.065086 
z"/>
<path fill="#5A443A" opacity="1.000000" stroke="none" 
	d="
M69.221359,76.331787 
	C69.057320,75.951515 68.963676,75.468605 68.952545,75.222900 
	C69.334396,74.416115 69.820885,73.912750 70.022430,72.886749 
	C70.959373,71.071327 72.733292,72.256348 74.079193,71.181778 
	C74.553574,70.934792 74.789276,70.840935 75.386635,70.867523 
	C77.554398,72.915672 80.007133,73.118477 82.401451,73.546822 
	C84.866165,73.987778 87.339699,74.527519 86.956100,78.327133 
	C86.743584,78.960976 86.620506,79.203362 86.195465,79.725937 
	C83.980728,81.340385 82.152702,80.474670 79.921524,79.664467 
	C76.368759,77.794205 72.384651,79.020332 69.221359,76.331787 
z"/>
<path fill="#65443B" opacity="1.000000" stroke="none" 
	d="
M74.811050,71.164505 
	C74.443901,70.979485 74.382851,71.013641 74.350357,71.021149 
	C72.755424,65.540108 77.188202,67.788025 79.677032,67.063728 
	C81.378365,69.142822 83.088127,70.788780 85.800568,71.036812 
	C87.739754,71.214142 88.769463,72.241814 88.540039,74.698425 
	C84.004570,74.049286 79.370422,73.480255 74.811050,71.164505 
z"/>
<path fill="#7C5247" opacity="1.000000" stroke="none" 
	d="
M97.360672,65.217117 
	C94.841408,64.938797 93.660576,63.752693 93.118675,61.406548 
	C95.900665,60.435135 99.536034,62.871304 101.770859,58.953140 
	C102.019836,60.676590 101.332710,62.091129 100.173424,63.685059 
	C100.142059,65.855545 98.905357,65.598373 97.360672,65.217117 
z"/>
<path fill="#754E43" opacity="1.000000" stroke="none" 
	d="
M113.718239,66.097198 
	C114.036240,67.716629 114.014153,69.425674 113.986053,71.561966 
	C112.999565,72.831627 111.927521,73.099464 110.358307,72.253494 
	C109.997940,71.997940 110.000000,72.000000 110.000999,72.001038 
	C110.246429,69.552193 110.698914,67.223114 113.718239,66.097198 
z"/>
<path fill="#7C5247" opacity="1.000000" stroke="none" 
	d="
M104.005569,59.999557 
	C104.694946,58.991096 105.040688,57.107197 106.712067,57.941856 
	C108.155922,58.662903 109.375816,60.064518 107.260681,61.900314 
	C105.483521,62.663219 104.999313,61.517490 104.209167,60.269455 
	C103.999695,59.998169 104.000542,60.000572 104.005569,59.999557 
z"/>
<path fill="#754E43" opacity="1.000000" stroke="none" 
	d="
M71.644325,54.008068 
	C72.004311,54.757324 72.002022,55.506432 71.999115,56.630356 
	C70.182587,57.956997 68.312370,57.333141 68.056633,55.654957 
	C67.722733,53.463871 70.019119,54.284565 71.644325,54.008068 
z"/>
<path fill="#604038" opacity="1.000000" stroke="none" 
	d="
M91.750778,45.355705 
	C90.014824,46.023094 90.014824,46.023094 88.549400,43.410904 
	C90.249207,42.801746 91.346443,43.266762 91.750778,45.355705 
z"/>
<path fill="#65443B" opacity="1.000000" stroke="none" 
	d="
M103.977837,60.331791 
	C104.826675,60.564522 105.653664,61.130875 106.737381,61.854195 
	C106.994125,62.011166 106.998795,62.508690 106.999245,62.757538 
	C106.054291,63.593319 105.108887,64.180252 104.112915,64.798576 
	C102.689270,63.468845 104.136108,62.026249 103.977837,60.331791 
z"/>
<path fill="#754E43" opacity="1.000000" stroke="none" 
	d="
M75.021652,57.358696 
	C76.807907,57.352943 77.785797,58.453480 77.978500,60.638611 
	C76.194595,60.641853 75.209641,59.548222 75.021652,57.358696 
z"/>
<path fill="#5A3C36" opacity="1.000000" stroke="none" 
	d="
M70.777695,46.124565 
	C71.437912,45.975296 71.888519,45.970451 72.676971,45.950325 
	C72.211830,47.081795 71.464066,48.566025 69.757294,47.726170 
	C69.285660,47.494087 70.090340,46.675468 70.777695,46.124565 
z"/>
<path fill="#604038" opacity="1.000000" stroke="none" 
	d="
M80.927414,46.593349 
	C81.507278,46.337421 81.879829,46.383152 81.872536,46.983540 
	C81.871246,47.089687 81.718636,47.254601 81.605042,47.288277 
	C81.119576,47.432178 80.789780,47.307911 80.927414,46.593349 
z"/>
<path fill="#A6736D" opacity="1.000000" stroke="none" 
	d="
M69.798920,72.767006 
	C71.076111,73.550827 71.127403,74.370438 69.261749,74.932526 
	C68.677032,74.828926 68.446892,74.639137 68.122284,74.223907 
	C68.519646,73.690613 69.045723,73.341225 69.798920,72.767006 
z"/>
<path fill="#5A3C36" opacity="1.000000" stroke="none" 
	d="
M77.898788,49.877754 
	C77.826454,50.211075 77.566528,50.409084 77.164085,50.817513 
	C76.430206,50.748093 75.573425,50.541401 76.005684,49.732613 
	C76.373413,49.044586 77.113770,49.362137 77.898788,49.877754 
z"/>
<path fill="#604038" opacity="1.000000" stroke="none" 
	d="
M64.984474,71.955872 
	C64.979881,72.092621 64.772972,72.451500 64.280251,72.941864 
	C64.257011,72.774910 64.519585,72.476456 64.984474,71.955872 
z"/>
<path fill="#754E43" opacity="1.000000" stroke="none" 
	d="
M97.003479,54.994698 
	C97.007126,54.989216 96.919861,55.044846 96.965302,55.018768 
	C97.010735,54.992687 96.999825,55.000175 97.003479,54.994698 
z"/>
<path fill="#9A8D84" opacity="1.000000" stroke="none" 
	d="
M67.253708,159.120270 
	C62.509113,158.495560 58.523621,156.451797 54.235626,154.372314 
	C53.524166,152.246506 53.717934,150.734131 55.283298,149.250931 
	C60.118050,144.669983 59.843376,143.983826 52.410957,141.702942 
	C52.084892,136.467911 55.236172,132.691467 57.841164,128.303024 
	C61.482224,126.318039 65.269577,128.981293 68.803459,127.229042 
	C69.631729,126.818359 70.687546,126.637459 72.036804,126.455109 
	C72.893372,126.471054 73.384613,126.558273 74.236275,126.797668 
	C75.300323,127.313774 75.821350,127.872345 76.344666,128.911774 
	C76.565460,133.515350 80.605301,135.630814 81.956757,139.384354 
	C82.952980,142.151245 83.177025,146.499313 87.062347,147.239517 
	C90.661636,147.925232 91.431465,142.968796 95.045357,142.390991 
	C99.898636,145.975647 99.949112,147.321762 95.637794,150.790207 
	C94.114990,152.015289 93.225693,153.894501 91.276344,155.166550 
	C91.142067,155.531647 91.101143,155.801788 90.997223,155.890457 
	C88.627388,157.743408 86.299484,158.975677 83.223869,156.766373 
	C80.585396,156.589554 79.528961,155.097153 78.521248,153.241547 
	C76.833305,150.133408 75.875000,149.345490 72.400177,147.163116 
	C73.097336,150.348480 75.740112,151.968384 76.606239,154.903061 
	C76.680641,155.513458 76.678215,155.762268 76.473648,156.734772 
	C76.150261,157.679688 76.029030,157.900909 75.639755,158.388947 
	C75.150383,158.774490 74.929054,158.893234 74.349785,159.097672 
	C73.754395,159.182678 73.516953,159.182007 72.942375,159.102722 
	C72.017731,158.803635 71.569649,158.351807 70.796532,157.994385 
	C70.573189,157.920029 70.203102,157.769165 69.543350,157.986511 
	C68.432098,158.473587 67.982269,158.746078 67.253708,159.120270 
z"/>
<path fill="#8B8079" opacity="1.000000" stroke="none" 
	d="
M91.485504,155.396088 
	C92.117767,152.750275 92.683266,149.818237 95.700615,148.180206 
	C98.480469,146.671097 96.815056,144.938309 95.266876,143.180908 
	C91.277580,144.010101 89.618515,142.105133 89.039337,138.339142 
	C89.162140,136.577515 89.421059,135.176956 90.954216,134.837738 
	C92.923653,134.401993 92.544853,136.389130 93.266708,137.295929 
	C95.383865,139.955490 97.711479,142.447495 100.138748,145.356384 
	C101.063553,149.110657 99.656471,151.242691 96.518631,152.573502 
	C94.871750,153.271942 93.386940,154.352509 91.485504,155.396088 
z"/>
<path fill="#8B8079" opacity="1.000000" stroke="none" 
	d="
M82.779861,155.237244 
	C85.429619,155.246933 87.594124,157.227325 90.551041,155.998779 
	C89.979668,158.537109 87.413528,159.598297 85.677773,161.884247 
	C84.869316,162.172302 84.222855,162.134445 83.252075,162.120911 
	C82.501785,162.107468 82.075813,162.069717 81.329834,162.007477 
	C80.747276,161.629501 80.579956,161.234406 80.488297,160.477203 
	C80.508675,159.269119 80.624596,158.402771 81.056488,157.258606 
	C81.549164,156.375961 82.069000,155.945847 82.779861,155.237244 
z"/>
<path fill="#A2968B" opacity="1.000000" stroke="none" 
	d="
M88.738266,137.880890 
	C90.875031,139.507187 92.671722,141.068161 94.738693,142.810593 
	C93.965302,144.692657 93.117332,146.559402 91.841103,148.062546 
	C88.082657,152.489258 84.352417,151.758713 82.106590,146.498703 
	C80.260979,142.176056 79.443474,137.248932 75.058167,134.309921 
	C73.707146,133.404480 74.696419,131.847763 74.953987,130.225174 
	C77.373360,128.199097 79.521324,129.157837 81.955933,130.628159 
	C82.629654,131.273468 82.872856,131.733734 82.985367,132.655350 
	C84.120399,135.395508 85.918144,136.993591 88.738266,137.880890 
z"/>
<path fill="#8B8079" opacity="1.000000" stroke="none" 
	d="
M83.279449,132.931366 
	C82.724823,132.863373 82.487015,132.657089 82.113159,132.251740 
	C80.970505,129.701706 82.877190,129.248962 84.665909,128.373871 
	C85.473854,128.277100 85.943291,128.300674 86.756210,128.409790 
	C86.269234,130.213516 85.357590,131.865479 83.279449,132.931366 
z"/>
<path fill="#845D5A" opacity="1.000000" stroke="none" 
	d="
M103.998962,111.758530 
	C100.048538,120.590385 94.105110,126.274368 84.047890,124.818626 
	C79.865974,124.213310 74.907364,124.140068 73.113113,118.219086 
	C77.526505,116.325539 80.723610,119.733795 84.619263,120.455215 
	C87.766296,121.037994 90.029976,120.950401 91.669525,117.576157 
	C93.230087,115.308220 96.724968,115.145294 96.574188,111.422531 
	C96.787552,110.272346 97.210220,109.653549 98.190125,108.982788 
	C99.072571,108.671799 99.604912,108.613007 100.549072,108.676048 
	C102.272545,109.232681 103.232048,110.147736 103.998962,111.758530 
z"/>
<path fill="#BB837F" opacity="1.000000" stroke="none" 
	d="
M104.348045,112.031273 
	C103.109764,111.683899 102.153358,111.207611 100.987366,110.485779 
	C100.868530,109.353592 101.552971,108.878296 102.073708,108.259193 
	C105.951408,103.648895 105.740814,100.597153 101.135727,94.833374 
	C101.034851,94.217903 101.034225,93.964363 101.138313,93.342743 
	C101.384300,92.761925 101.525581,92.549187 101.967758,92.100494 
	C103.481232,91.421684 104.715271,91.356712 106.275673,91.872284 
	C109.476357,92.132263 109.815247,93.995262 110.099571,96.394913 
	C110.659225,101.118370 108.132004,104.993431 107.054680,109.647858 
	C106.230827,110.654922 105.430374,111.278648 104.348045,112.031273 
z"/>
<path fill="#946461" opacity="1.000000" stroke="none" 
	d="
M84.604691,128.210800 
	C84.098969,129.347778 83.193527,130.442047 82.124588,131.803741 
	C79.867378,131.445572 77.773643,130.820007 75.352097,130.032822 
	C74.733917,129.425781 74.443558,128.980347 74.025215,128.300369 
	C73.319763,127.240082 73.201370,126.359970 73.919525,125.096832 
	C77.547699,125.975197 80.479027,128.236053 84.604691,128.210800 
z"/>
<path fill="#845D5A" opacity="1.000000" stroke="none" 
	d="
M66.004654,107.386116 
	C66.443886,107.015320 66.883858,107.038811 67.653870,107.044968 
	C68.489960,106.764969 69.002426,106.752586 69.855148,107.214218 
	C72.563507,110.328552 74.486832,113.368759 73.273392,117.683319 
	C73.012169,117.989532 72.928276,118.079651 72.885605,118.127899 
	C72.136391,118.120155 71.429848,118.064163 70.367279,117.987053 
	C69.283432,117.242851 69.128998,116.161621 68.205139,115.216812 
	C67.986481,115.009224 67.996994,114.999817 67.993248,115.007385 
	C67.351997,112.596893 65.598495,110.484901 66.004654,107.386116 
z"/>
<path fill="#8B8079" opacity="1.000000" stroke="none" 
	d="
M74.030075,124.527527 
	C74.164040,125.596237 74.072960,126.419350 73.939560,127.654137 
	C73.478218,128.042526 73.059189,128.019257 72.324806,127.988129 
	C70.035019,127.749031 68.080536,127.489143 67.714951,124.563477 
	C67.855957,123.608185 68.082535,123.113541 68.682602,122.356354 
	C68.950371,122.045334 69.164513,121.800522 69.274803,121.675392 
	C71.074547,122.111092 72.593636,122.947578 74.030075,124.527527 
z"/>
<path fill="#805854" opacity="1.000000" stroke="none" 
	d="
M68.056213,115.312073 
	C69.121696,115.369743 69.786362,116.126930 69.972778,117.642845 
	C69.089630,117.417381 68.408890,116.675652 68.056213,115.312073 
z"/>
<path fill="#AC7872" opacity="1.000000" stroke="none" 
	d="
M109.825104,80.169525 
	C110.496994,83.670929 112.227020,87.169670 107.291153,88.934814 
	C106.211632,89.454185 105.489464,89.325554 104.479675,88.718277 
	C104.054214,88.250168 103.921585,88.030624 103.687393,87.439598 
	C103.429291,84.798141 102.069344,82.516548 103.956619,79.996338 
	C106.066368,78.587059 107.856255,78.482063 109.825104,80.169525 
z"/>
<path fill="#5A443A" opacity="1.000000" stroke="none" 
	d="
M109.938553,80.161949 
	C108.256302,80.130699 106.525604,80.253815 104.470261,80.999176 
	C101.738075,83.971230 98.851913,84.766632 95.038025,82.924606 
	C93.756607,80.927010 93.753242,78.863731 95.586304,78.482803 
	C99.103691,77.751877 102.366180,75.057823 106.724304,76.867699 
	C107.520866,77.003380 107.866043,76.995667 108.466736,76.983803 
	C109.099060,77.916656 109.475853,78.853668 109.938553,80.161949 
z"/>
<path fill="#C8C3C1" opacity="1.000000" stroke="none" 
	d="
M104.493393,87.873520 
	C105.424286,88.163849 105.924423,88.454109 106.685600,88.880249 
	C106.893860,89.789040 106.841080,90.561951 106.684875,91.712570 
	C105.621674,92.383904 104.661911,92.677521 103.394585,93.025467 
	C102.096550,91.097801 101.792923,89.244514 104.493393,87.873520 
z"/>
<path fill="#CF9D97" opacity="1.000000" stroke="none" 
	d="
M107.093887,76.646790 
	C104.683990,78.389915 102.023460,79.045647 99.166809,79.047035 
	C97.396576,79.047897 95.340538,78.660812 94.793457,81.611847 
	C95.928261,84.393364 95.465126,86.318764 92.804367,87.875435 
	C89.795540,88.634895 88.853928,85.561783 86.214996,85.208786 
	C85.616440,84.841141 85.403732,84.649513 84.979187,84.079971 
	C84.272644,82.234222 84.184288,80.823189 85.623367,79.243515 
	C85.903946,78.900543 85.967545,78.909012 85.958298,78.939728 
	C86.382401,78.607765 86.879631,78.459824 87.782684,78.740570 
	C93.406639,77.825790 98.836082,77.033646 102.893433,72.322853 
	C105.071968,70.522659 105.500923,72.465401 106.544250,73.764236 
	C106.835403,74.802277 106.923737,75.542389 107.093887,76.646790 
z"/>
<path fill="#B7837E" opacity="1.000000" stroke="none" 
	d="
M106.908752,73.818497 
	C105.729797,73.450745 104.712517,72.839325 103.408844,72.143799 
	C103.163788,71.030022 103.443031,69.562515 104.265907,69.518723 
	C106.030739,69.424797 105.948105,71.580635 107.145996,72.792725 
	C107.249557,73.228500 107.159988,73.401657 106.908752,73.818497 
z"/>
<path fill="#6D483E" opacity="1.000000" stroke="none" 
	d="
M109.998497,72.275574 
	C111.060219,71.996239 112.122505,71.994545 113.582405,71.991028 
	C113.689301,74.546989 112.706505,75.553734 110.199341,73.348145 
	C110.000603,72.923386 109.999825,72.738297 109.998497,72.275574 
z"/>
<path fill="#94897F" opacity="1.000000" stroke="none" 
	d="
M68.765808,123.818222 
	C69.230156,125.689774 70.400475,126.608444 71.782379,127.759399 
	C69.684288,129.082687 66.895065,129.171463 65.123764,131.504776 
	C64.042091,132.929611 62.803070,132.233246 61.833992,131.112961 
	C60.880177,130.010315 60.217297,128.601013 58.318878,128.084854 
	C58.262989,123.211929 62.317406,123.986534 65.606850,123.038315 
	C67.009857,122.402931 67.748444,123.066917 68.765808,123.818222 
z"/>
<path fill="#756C67" opacity="1.000000" stroke="none" 
	d="
M68.997757,123.735313 
	C68.198593,123.802444 67.389732,123.530716 66.286667,123.131752 
	C65.712349,120.168617 67.522568,122.083496 68.687500,121.989853 
	C68.962936,122.495712 68.975502,122.946083 68.997757,123.735313 
z"/>
<path fill="#805854" opacity="1.000000" stroke="none" 
	d="
M54.186630,91.237602 
	C54.569164,91.169846 55.134315,91.342751 55.873093,91.759583 
	C55.487560,91.828415 54.928406,91.653343 54.186630,91.237602 
z"/>
<path fill="#805854" opacity="1.000000" stroke="none" 
	d="
M56.075989,92.204613 
	C56.270863,92.146973 56.561214,92.336670 56.946548,92.774841 
	C56.751511,92.832870 56.461487,92.642410 56.075989,92.204613 
z"/>
<path fill="#A2968B" opacity="1.000000" stroke="none" 
	d="
M67.189453,159.395905 
	C67.225510,158.359924 67.475151,157.496399 67.860733,156.326202 
	C68.377090,155.629959 68.835922,155.479462 69.678879,155.795990 
	C69.984581,156.023880 70.000610,156.001221 69.991867,156.010406 
	C70.757484,156.697128 71.841164,156.845612 72.791710,157.786545 
	C72.983391,158.023453 73.003021,158.001343 72.989639,158.006256 
	C73.795067,158.710464 75.150764,158.871170 75.156113,160.608521 
	C73.278954,160.686584 71.503014,160.441086 69.345856,160.150543 
	C68.444099,159.926453 67.923569,159.747421 67.189453,159.395905 
z"/>
<path fill="#756C67" opacity="1.000000" stroke="none" 
	d="
M75.092773,161.110733 
	C74.447258,160.139984 73.839638,159.347870 73.104134,158.283447 
	C73.427185,158.002686 73.878128,157.994247 74.681885,157.995361 
	C75.034706,158.004944 75.180962,157.633316 75.228546,157.439392 
	C75.397812,157.041107 75.519485,156.836761 75.966179,156.476685 
	C76.782867,156.251663 77.268417,156.287125 78.095680,156.562225 
	C78.873993,157.005356 79.242203,157.358795 79.735413,158.119049 
	C80.280777,159.512009 80.196609,160.500610 79.262291,161.701538 
	C77.976151,161.902588 76.936646,161.806564 75.506767,161.682434 
	C75.116402,161.654327 75.130653,161.289383 75.092773,161.110733 
z"/>
<path fill="#A3978C" opacity="1.000000" stroke="none" 
	d="
M77.240189,158.336700 
	C76.701401,157.945236 76.435524,157.728302 75.968872,157.350342 
	C75.673973,156.983383 75.579857,156.777451 75.249367,156.327637 
	C73.255424,153.884735 71.320274,151.800278 69.801926,149.446915 
	C68.767525,147.843658 67.556953,145.646851 69.293900,143.973618 
	C71.264404,142.075378 73.294121,143.404831 75.000908,144.912827 
	C78.131241,147.678558 80.112358,151.318436 82.711594,154.862640 
	C83.028763,155.750183 83.037605,156.496613 83.049461,157.616379 
	C82.988106,158.862488 83.019707,159.758087 82.219330,160.744278 
	C81.731926,161.162399 81.503136,161.374741 81.154694,161.798630 
	C80.565926,162.018295 80.122025,162.053574 79.346893,162.043732 
	C78.773468,161.183655 78.531273,160.368698 78.086624,159.298035 
	C77.760475,158.865295 77.636787,158.688263 77.240189,158.336700 
z"/>
<path fill="#C99C96" opacity="1.000000" stroke="none" 
	d="
M88.157967,78.665985 
	C87.641159,78.959106 87.157707,78.963737 86.311653,78.969406 
	C86.241707,75.317734 83.449577,75.501411 81.108780,74.973305 
	C78.734856,74.437721 75.632881,75.197220 74.586761,71.353882 
	C79.311783,70.848511 83.740997,72.464470 88.292862,74.762108 
	C88.395233,76.204826 88.293282,77.291161 88.157967,78.665985 
z"/>
<path fill="#65443B" opacity="1.000000" stroke="none" 
	d="
M97.157562,65.261093 
	C97.816643,64.782135 98.643768,64.568733 99.731903,64.164536 
	C100.630241,64.914482 101.428459,66.091850 100.305557,66.921913 
	C98.829597,68.012962 98.154663,66.382637 97.157562,65.261093 
z"/>
<path fill="#65443B" opacity="1.000000" stroke="none" 
	d="
M83.008011,59.389481 
	C83.183105,59.005249 83.352036,59.000755 83.774742,58.990604 
	C84.028519,60.606441 84.028519,62.227932 84.028519,63.849426 
	C83.686295,63.882610 83.344070,63.915794 83.001846,63.948978 
	C83.001846,62.555725 83.001846,61.162476 83.008011,59.389481 
z"/>
<path fill="#65443B" opacity="1.000000" stroke="none" 
	d="
M86.714668,68.963844 
	C86.904884,68.891678 87.090576,68.937157 87.276268,68.982643 
	C87.087563,69.015594 86.898849,69.048546 86.714668,68.963844 
z"/>
<path fill="#D59B97" opacity="1.000000" stroke="none" 
	d="
M69.396996,108.093079 
	C68.902222,107.544724 68.661804,107.365242 68.185806,107.129257 
	C66.209389,102.384972 64.174408,97.816658 65.033417,92.608841 
	C65.453415,90.062561 65.931900,87.850868 69.684982,89.013199 
	C70.929916,88.779678 71.813614,88.354134 73.142723,88.790642 
	C74.780197,90.266663 76.474922,90.412750 78.584953,90.489685 
	C79.770332,90.548744 80.560081,90.633751 81.611877,91.270218 
	C83.388474,93.745781 84.393227,96.027458 82.777191,98.977486 
	C81.780403,99.996841 80.861145,100.316246 79.845558,100.277283 
	C73.474655,100.032867 73.474907,100.026268 74.378914,106.565765 
	C74.213387,107.457748 73.965950,107.915146 73.276909,108.562195 
	C71.783104,109.258293 70.705574,109.076004 69.396996,108.093079 
z"/>
<path fill="#AC7872" opacity="1.000000" stroke="none" 
	d="
M85.675735,83.728462 
	C85.954056,84.024132 86.434311,84.038193 86.674179,84.025009 
	C88.556114,85.395401 89.371948,87.059044 88.467896,89.661194 
	C87.009590,91.582161 85.552872,92.638840 83.062782,92.326050 
	C81.039330,91.494583 80.541412,89.920296 79.620842,88.213913 
	C78.827538,86.640297 77.467484,85.904739 77.017227,84.164658 
	C76.289749,83.007713 74.583107,83.073975 74.935928,81.169174 
	C75.291595,80.470253 75.686928,80.108528 76.566078,79.742157 
	C80.532333,79.212212 83.267220,80.650124 85.675735,83.728462 
z"/>
<path fill="#CB9891" opacity="1.000000" stroke="none" 
	d="
M77.206482,80.678734 
	C76.473778,80.901375 76.049126,80.907074 75.305664,80.921890 
	C74.009377,80.355209 73.124306,80.667648 72.205139,81.142616 
	C70.684998,81.928146 68.940804,82.567535 67.728058,80.952339 
	C66.562981,79.400650 67.559410,77.834129 68.809998,76.206833 
	C72.649277,75.830505 76.171806,76.270607 79.952904,77.476593 
	C80.802544,80.059647 78.627098,79.729881 77.206482,80.678734 
z"/>
<path fill="#403A3A" opacity="1.000000" stroke="none" 
	d="
M76.596481,83.856979 
	C78.339600,84.255608 79.806946,84.476547 80.921837,85.999237 
	C80.825127,86.945724 80.936996,87.573845 80.769669,88.483582 
	C80.532639,89.169182 80.385384,89.556717 80.092743,90.219437 
	C79.561600,90.993660 79.028648,91.295372 78.228821,91.739426 
	C76.225861,92.218544 74.734489,91.622276 73.093842,90.399963 
	C71.918045,89.084229 71.344063,87.870560 71.346176,86.077980 
	C72.274384,83.316391 74.443954,84.122444 76.596481,83.856979 
z"/>
<path fill="#DED7D7" opacity="1.000000" stroke="none" 
	d="
M71.031944,85.976204 
	C74.368492,85.751915 72.397781,88.176498 72.945091,89.752014 
	C72.062805,89.919846 71.286049,89.678108 70.267746,89.251633 
	C70.265411,88.116974 70.504616,87.167053 71.031944,85.976204 
z"/>
<path fill="#6D483E" opacity="1.000000" stroke="none" 
	d="
M87.000183,55.000305 
	C87.000359,55.000610 86.907234,55.051323 86.953308,55.025478 
	C86.999390,54.999634 87.000000,55.000000 87.000183,55.000305 
z"/>
<path fill="#B7837E" opacity="1.000000" stroke="none" 
	d="
M77.272400,80.954803 
	C77.419487,79.525780 78.739861,78.992798 80.023972,77.924149 
	C81.911736,78.120430 83.544113,78.547012 85.540215,78.937073 
	C85.927238,80.323410 85.950531,81.746277 85.963943,83.596634 
	C82.765625,84.177681 80.635086,81.411591 77.272400,80.954803 
z"/>
<path fill="#8B8079" opacity="1.000000" stroke="none" 
	d="
M68.234467,155.151001 
	C67.105911,154.812836 65.937500,154.646622 66.227066,153.772903 
	C66.625015,152.572189 67.719704,153.220123 68.788910,153.701172 
	C69.329918,154.448929 69.202461,154.921356 68.234467,155.151001 
z"/>
<path fill="#756C67" opacity="1.000000" stroke="none" 
	d="
M73.051071,157.761200 
	C71.846382,157.982010 70.996971,157.399384 70.127579,156.301086 
	C71.270576,155.999268 72.779221,155.510101 73.051071,157.761200 
z"/>
<path fill="#756C67" opacity="1.000000" stroke="none" 
	d="
M67.875229,155.273315 
	C68.110313,154.782822 68.391777,154.540039 68.847870,154.078217 
	C69.329170,154.378540 69.635841,154.897919 69.963547,155.720581 
	C69.542946,156.031036 69.101318,156.038177 68.328171,156.032425 
	C67.971642,155.853378 67.946625,155.687210 67.875229,155.273315 
z"/>
<path fill="#8B8079" opacity="1.000000" stroke="none" 
	d="
M75.070602,156.376038 
	C75.252037,156.273453 75.449463,156.499496 75.686691,156.975616 
	C75.768097,157.189316 75.518456,157.209763 75.397293,157.227600 
	C75.226830,157.053085 75.177528,156.860703 75.070602,156.376038 
z"/>
<path fill="#8B8079" opacity="1.000000" stroke="none" 
	d="
M63.490166,152.505127 
	C63.478020,152.477707 63.502312,152.532547 63.490166,152.505127 
z"/>
<path fill="#9B8F85" opacity="1.000000" stroke="none" 
	d="
M82.262085,160.886566 
	C82.209351,160.153091 82.432777,159.328964 82.854340,158.247269 
	C83.829575,159.098923 83.945801,160.087036 82.262085,160.886566 
z"/>
<path fill="#966B66" opacity="1.000000" stroke="none" 
	d="
M69.186356,108.125443 
	C70.074196,107.753113 71.039452,107.736900 72.367577,107.729416 
	C73.198471,107.570351 73.674049,107.534218 74.472855,107.833878 
	C77.682442,111.570839 79.900581,116.098747 85.979004,115.676315 
	C88.193123,117.510429 91.121506,115.419449 92.987000,117.902565 
	C91.596909,122.859314 87.882889,123.557060 83.995346,122.691986 
	C80.352493,121.881355 76.641747,120.781387 73.335182,118.111481 
	C72.546532,114.511192 70.591331,111.620094 69.186356,108.125443 
z"/>
<path fill="#D49895" opacity="1.000000" stroke="none" 
	d="
M101.781540,93.835190 
	C104.259422,95.231056 107.342003,95.578011 106.981003,99.214622 
	C106.554474,103.511421 106.077866,107.800560 101.131943,110.109573 
	C100.383217,110.190521 99.988670,110.140808 99.300110,110.038071 
	C98.292709,109.710167 97.772224,109.241791 97.504417,108.144981 
	C100.422028,102.498695 101.297386,103.823769 94.770020,100.120590 
	C93.705177,98.017578 94.012779,96.139481 94.322983,93.894257 
	C94.748581,93.035484 95.082832,92.609230 95.836975,92.044220 
	C96.441025,91.792542 96.696121,91.735367 97.337463,91.672455 
	C98.224289,91.731163 98.705154,91.865379 99.493187,92.224167 
	C100.497391,92.630669 101.061012,93.048500 101.781540,93.835190 
z"/>
<path fill="#BB837F" opacity="1.000000" stroke="none" 
	d="
M93.436722,118.132538 
	C90.879166,117.333084 88.378494,119.883896 86.136917,117.375458 
	C85.669693,116.730057 85.439552,116.327133 85.342339,115.512314 
	C85.972404,113.287735 88.022118,113.625778 89.488159,112.455795 
	C89.947174,112.141380 90.135880,112.023552 90.634750,111.785095 
	C92.031380,111.498123 93.150291,111.450844 94.413391,110.669250 
	C95.946770,110.076820 96.941170,110.311142 97.868835,111.731644 
	C98.523109,115.303680 96.651680,117.018570 93.436722,118.132538 
z"/>
<path fill="#AC7872" opacity="1.000000" stroke="none" 
	d="
M98.171989,111.691360 
	C97.293945,111.924232 96.466866,111.886574 95.406647,111.945999 
	C94.168671,111.930038 93.213654,111.692253 92.236374,110.645004 
	C91.936134,110.087646 91.856392,109.843376 91.764618,109.212334 
	C91.875244,107.755432 92.513245,106.908379 93.258163,105.704514 
	C93.771980,105.301224 94.008629,105.181038 94.639282,104.993874 
	C96.539124,105.027206 97.483109,105.829330 97.935135,107.645447 
	C98.218803,108.520668 98.500488,108.998901 98.894135,109.731079 
	C98.745041,110.463623 98.483994,110.942223 98.171989,111.691360 
z"/>
<path fill="#262628" opacity="1.000000" stroke="none" 
	d="
M104.924347,87.701942 
	C103.042618,88.872520 104.746475,91.225288 103.158218,92.720810 
	C103.087021,93.079788 102.595131,93.096428 102.356735,93.157455 
	C100.802925,92.931595 99.414642,93.111221 97.733582,92.483109 
	C96.153000,91.799690 95.759338,90.795006 95.865906,89.124397 
	C98.828415,83.774094 100.234596,83.402588 104.577255,86.838409 
	C104.864487,87.192291 104.924545,87.530296 104.924347,87.701942 
z"/>
<path fill="#403A3A" opacity="1.000000" stroke="none" 
	d="
M97.577103,92.289070 
	C99.041451,92.303375 100.285805,92.516968 101.824249,92.974518 
	C102.118340,93.218491 102.095306,93.659889 102.054993,93.877182 
	C101.263542,94.082932 100.512413,94.071404 99.392555,93.985016 
	C98.878532,93.795982 98.733238,93.681786 98.371223,93.394745 
	C98.154510,93.221901 97.884598,92.996391 97.711105,93.025162 
	C97.477432,92.865395 97.417259,92.676872 97.577103,92.289070 
z"/>
<path fill="#8B605D" opacity="1.000000" stroke="none" 
	d="
M104.914848,86.843552 
	C102.266891,86.637672 99.603027,85.809761 97.554863,88.915123 
	C95.480659,89.599396 96.418350,91.862648 94.597931,92.855560 
	C93.347916,93.199013 92.535240,93.046349 91.476440,92.236595 
	C90.346413,90.396683 90.447929,88.976631 91.973663,87.399063 
	C93.070229,85.613350 93.783752,84.088356 94.654007,82.292755 
	C97.627693,81.700203 100.444649,81.378250 103.684845,81.075684 
	C105.980064,82.643196 105.858559,84.507751 104.914848,86.843552 
z"/>
<path fill="#E3A7A2" opacity="1.000000" stroke="none" 
	d="
M92.070297,86.909027 
	C92.245605,88.472450 92.134499,89.806564 92.040924,91.543442 
	C94.868835,94.609192 94.172951,97.814537 93.275375,101.469978 
	C92.749420,102.477180 92.299011,102.923805 91.289124,103.418098 
	C90.220718,103.639435 89.599113,103.630486 88.523170,103.519089 
	C87.464867,103.471733 86.878998,103.364746 85.939629,102.930847 
	C82.682770,98.390068 86.058449,94.723831 86.941086,90.396225 
	C87.052383,88.292816 87.014908,86.579391 86.945740,84.438889 
	C89.095184,83.882835 90.497574,85.175323 92.070297,86.909027 
z"/>
<path fill="#8B8079" opacity="1.000000" stroke="none" 
	d="
M77.095383,158.333008 
	C77.225052,158.295044 77.448631,158.471298 77.761093,158.866623 
	C77.636177,158.896881 77.415955,158.717377 77.095383,158.333008 
z"/>
<path fill="#8B8079" opacity="1.000000" stroke="none" 
	d="
M75.018097,158.000168 
	C75.034706,158.004944 75.063797,158.132965 75.034538,158.080032 
	C75.005280,158.027100 75.001495,157.995392 75.018097,158.000168 
z"/>
<path fill="#E4ADA8" opacity="1.000000" stroke="none" 
	d="
M73.377060,106.379929 
	C71.210396,103.424782 69.587852,100.062622 71.941711,97.508858 
	C74.520599,94.710938 77.668976,97.270554 80.710266,98.807281 
	C82.017838,99.570450 82.868088,100.277481 83.210526,101.897568 
	C83.282372,102.891869 83.174965,103.444153 82.707306,104.318428 
	C79.643021,105.733192 76.885315,107.067955 73.377060,106.379929 
z"/>
<path fill="#C78781" opacity="1.000000" stroke="none" 
	d="
M82.065720,102.253624 
	C81.442505,101.207886 81.227821,100.415741 81.013969,99.309006 
	C82.488388,96.685349 80.862900,94.602119 80.404114,92.039185 
	C80.487228,91.303535 80.789246,91.055374 81.462067,90.948433 
	C83.279999,90.719032 84.801819,90.436386 86.706757,90.079994 
	C89.182533,93.971275 87.247093,97.581390 86.043762,101.644745 
	C84.938004,103.072632 83.756889,103.162773 82.065720,102.253624 
z"/>
<path fill="#A6736D" opacity="1.000000" stroke="none" 
	d="
M72.992821,106.423477 
	C75.782310,105.466858 78.538109,104.777077 81.690109,104.048584 
	C84.019646,102.706841 85.712807,103.284264 87.482956,105.042213 
	C87.345421,110.365807 83.423836,108.976746 80.182434,109.527130 
	C79.565552,109.683250 79.322235,109.756012 78.721741,109.963699 
	C77.062943,110.448044 75.874039,110.152794 74.422791,109.291855 
	C73.798958,108.803284 73.505684,108.490196 72.971428,107.957611 
	C72.806679,107.388855 72.882904,107.039581 72.992821,106.423477 
z"/>
<path fill="#C8C3C1" opacity="1.000000" stroke="none" 
	d="
M81.855087,90.656113 
	C81.423286,91.126465 81.088402,91.251266 80.512856,91.515091 
	C79.701241,91.727257 79.130280,91.800392 78.263580,91.881554 
	C78.322533,91.472084 78.677223,91.054588 79.125496,90.371208 
	C79.048714,89.492401 79.133499,88.930832 79.762848,88.221481 
	C80.127876,87.451683 80.284927,86.897408 80.732460,86.344315 
	C81.957924,87.520668 82.385284,88.814781 81.855087,90.656113 
z"/>
<path fill="#232223" opacity="1.000000" stroke="none" 
	d="
M79.639893,87.965263 
	C79.879990,88.586037 79.789154,89.166115 79.458694,89.925758 
	C77.958466,89.689613 75.634529,90.219620 75.944275,88.256958 
	C76.177429,86.779572 78.147285,88.199059 79.639893,87.965263 
z"/>
<path fill="#D1978F" opacity="1.000000" stroke="none" 
	d="
M74.107651,109.468216 
	C75.176682,108.750519 76.261131,108.384659 77.694702,108.007050 
	C78.932838,108.899544 80.202164,108.323021 81.486588,108.981812 
	C82.403870,109.806503 82.715630,110.673752 83.499138,111.621658 
	C84.365547,112.781273 85.381729,113.383080 85.884293,114.783447 
	C85.944077,115.552124 85.953468,115.988174 85.978897,116.752304 
	C79.225121,117.125259 76.359093,115.372528 74.107651,109.468216 
z"/>
<path fill="#E3A7A2" opacity="1.000000" stroke="none" 
	d="
M98.316864,107.995575 
	C97.020782,107.429550 96.104446,106.816658 94.881607,106.076996 
	C94.454117,105.777534 94.333130,105.604836 94.064255,105.150848 
	C93.815033,104.450859 93.799240,104.028053 93.963242,103.298599 
	C94.215157,102.588890 94.354134,102.180664 94.585098,101.458992 
	C94.908081,100.767479 95.208405,100.457771 95.892998,100.139175 
	C98.613380,99.561142 101.554253,97.688896 102.671204,101.546013 
	C103.607262,104.778496 102.439903,107.315910 98.316864,107.995575 
z"/>
<path fill="#B17571" opacity="1.000000" stroke="none" 
	d="
M96.134842,99.622040 
	C96.067993,100.572433 95.922081,101.074699 95.614426,101.934311 
	C94.700745,103.040764 93.838799,103.078674 92.647858,102.458771 
	C92.223076,99.111893 92.060524,95.991226 91.978210,92.408386 
	C92.826645,91.957275 93.594849,91.968330 94.747574,91.979843 
	C95.544571,91.822380 95.897453,91.908531 96.198990,92.543213 
	C96.156769,94.956390 96.106270,97.065155 96.134842,99.622040 
z"/>
<path fill="#DED7D7" opacity="1.000000" stroke="none" 
	d="
M96.435822,92.836807 
	C96.054192,92.562233 95.844322,92.327667 95.354874,92.062119 
	C95.482056,90.689560 93.602821,88.379013 97.001404,88.663307 
	C97.226189,89.860374 97.228241,90.775162 97.513702,91.889870 
	C97.787094,92.259338 97.777084,92.428879 97.652344,92.826172 
	C97.273293,92.875374 96.982216,92.799400 96.435822,92.836807 
z"/>
<path fill="#B17571" opacity="1.000000" stroke="none" 
	d="
M98.257362,93.382317 
	C98.452644,93.187546 98.687431,93.293564 98.941345,93.725067 
	C98.763786,93.857697 98.542580,93.735214 98.257362,93.382317 
z"/>
<path fill="#966B66" opacity="1.000000" stroke="none" 
	d="
M86.292084,115.088242 
	C84.837997,114.595131 83.741318,114.074188 82.455338,113.317825 
	C82.580544,112.350128 82.881210,111.608940 83.903915,110.930588 
	C86.798569,110.392876 88.987320,110.944504 90.767990,113.465782 
	C90.042625,116.001167 88.082024,114.618782 86.292084,115.088242 
z"/>
<path fill="#984B46" opacity="1.000000" stroke="none" 
	d="
M92.668785,109.530052 
	C93.631424,110.350433 94.257408,110.912575 95.028442,111.758896 
	C94.037018,112.328934 92.900528,112.614784 91.408577,112.929314 
	C90.050415,112.088989 88.444489,112.160339 87.799591,110.422592 
	C89.113976,108.333687 90.658943,108.416809 92.668785,109.530052 
z"/>
<path fill="#C78781" opacity="1.000000" stroke="none" 
	d="
M87.804024,110.625137 
	C89.268341,111.054810 90.299652,111.250221 90.935242,112.666458 
	C91.053108,112.957985 91.005287,113.385185 90.986992,113.597595 
	C88.863861,113.293472 86.759018,112.776932 84.282928,112.251907 
	C84.016273,109.671295 85.677582,109.933098 87.804024,110.625137 
z"/>
<path fill="#874B49" opacity="1.000000" stroke="none" 
	d="
M92.085915,102.354095 
	C93.205971,102.238388 94.026314,102.244202 95.149658,102.270828 
	C95.443062,102.631584 95.433456,102.971527 95.369186,103.561905 
	C95.370628,104.048470 95.426750,104.284592 95.121872,104.473679 
	C94.718544,104.679214 94.676216,104.931793 94.604492,105.567307 
	C94.575104,105.950233 94.203163,105.829735 94.007706,105.832664 
	C92.647392,107.526665 90.984863,107.639557 88.771675,107.148163 
	C88.132370,106.828011 87.900024,106.656487 87.389908,106.152550 
	C85.657829,105.256165 84.203529,104.692192 82.417770,104.069046 
	C81.990334,103.563438 81.894348,103.116997 81.727776,102.335297 
	C82.812836,102.020622 83.968483,102.041214 85.556702,102.045242 
	C86.309006,102.191162 86.628746,102.353638 87.211166,102.576385 
	C88.290436,102.415276 89.107262,103.036995 90.229492,102.707687 
	C90.952202,102.678154 91.369194,102.576889 92.085915,102.354095 
z"/>
<path fill="#C1706B" opacity="1.000000" stroke="none" 
	d="
M88.471725,110.706253 
	C86.971039,111.204941 85.742935,111.481934 84.213257,112.001175 
	C83.513466,112.481621 83.115257,112.719818 82.491539,113.020218 
	C81.864250,112.412643 81.462456,111.742874 80.988495,110.791748 
	C81.282089,108.488541 83.079910,109.151901 84.682816,108.550453 
	C86.436630,107.958969 87.815407,107.620705 89.677193,107.541580 
	C90.997337,107.518028 91.815125,107.724991 92.764221,108.657516 
	C93.014244,109.010139 93.009483,109.400429 93.007462,109.594360 
	C91.585068,110.020386 90.164680,110.252480 88.471725,110.706253 
z"/>
<path fill="#966B66" opacity="1.000000" stroke="none" 
	d="
M93.201920,108.732605 
	C92.257240,108.998032 91.500244,108.985916 90.365005,108.964661 
	C89.108498,108.251678 87.231529,108.584480 87.791069,106.313293 
	C89.678322,105.969658 91.339767,105.935333 93.406731,105.868301 
	C93.671364,106.708755 93.530479,107.581909 93.201920,108.732605 
z"/>
<path fill="#C78781" opacity="1.000000" stroke="none" 
	d="
M90.032570,102.660660 
	C89.692711,103.611671 88.785881,103.680374 87.645248,102.822586 
	C88.159218,102.605072 88.844574,102.573486 90.032570,102.660660 
z"/>
<path fill="#B17571" opacity="1.000000" stroke="none" 
	d="
M87.791725,105.952896 
	C88.542267,106.836800 89.067665,107.669617 89.789917,108.728973 
	C88.586967,108.968307 87.187172,108.981094 85.366905,108.996475 
	C83.054794,110.001434 81.287186,109.524292 79.278992,108.253204 
	C81.232239,105.982292 84.513733,108.889656 86.867889,106.072891 
	C87.112137,105.820137 87.566582,105.901802 87.791725,105.952896 
z"/>
<path fill="#984B46" opacity="1.000000" stroke="none" 
	d="
M78.758728,107.977882 
	C80.728363,108.294617 82.460205,108.630417 84.569244,108.982635 
	C83.835686,109.431999 82.724937,109.864929 81.265251,110.404114 
	C80.031670,109.878975 79.147026,109.247574 78.153107,108.305740 
	C78.043823,107.995308 78.520935,107.996948 78.758728,107.977882 
z"/>
<path fill="#AC7872" opacity="1.000000" stroke="none" 
	d="
M94.924942,104.407837 
	C94.837051,104.252487 94.945915,104.102005 95.200996,103.893761 
	C95.379410,104.059509 95.304245,104.251740 94.924942,104.407837 
z"/>
</svg>