<?xml version="1.0" standalone="no"?>
<!DOCTYPE svg PUBLIC "-//W3C//DTD SVG 20010904//EN"
 "http://www.w3.org/TR/2001/REC-SVG-20010904/DTD/svg10.dtd">
<svg version="1.0" xmlns="http://www.w3.org/2000/svg"
 width="167.000000pt" height="167.000000pt" viewBox="0 0 167.000000 167.000000"
 preserveAspectRatio="xMidYMid meet">

<g transform="translate(0.000000,167.000000) scale(0.100000,-0.100000)"
fill="#000000" stroke="none">
<path d="M789 1280 c-74 -19 -197 -84 -180 -94 7 -5 1 -22 -19 -52 -17 -24
-26 -44 -20 -44 8 0 9 -10 5 -29 -10 -45 -14 -131 -7 -131 4 0 8 -43 9 -96 1
-91 0 -95 -16 -80 -10 9 -24 16 -32 16 -9 0 -7 -6 7 -18 12 -9 24 -26 27 -37
32 -115 102 -241 147 -265 10 -6 20 -20 22 -32 2 -14 17 -31 40 -43 34 -18 38
-18 50 -4 7 9 38 22 68 29 30 7 68 20 83 29 29 17 107 123 107 146 0 8 9 17
20 20 15 5 18 10 11 23 -10 19 3 51 26 65 19 12 17 41 -3 33 -14 -5 -15 2 -8
62 3 37 10 76 14 87 4 11 8 25 10 30 1 6 7 17 15 25 20 23 23 88 8 153 -15 65
-40 105 -84 131 -16 9 -27 22 -24 27 4 5 -3 9 -15 9 -12 0 -35 13 -51 30 -24
23 -34 28 -48 20 -10 -5 -20 -8 -22 -6 -15 12 -84 10 -140 -4z m271 -356 c0
-24 -23 -34 -82 -34 -35 0 -43 -7 -39 -32 0 -4 -6 -23 -14 -42 -17 -40 -20
-76 -6 -76 5 0 14 14 20 32 12 35 20 34 23 -3 2 -20 8 -26 30 -27 24 -2 29 2
34 28 5 24 9 28 20 19 8 -6 14 -18 14 -25 0 -8 6 -11 15 -8 23 9 19 -77 -6
-136 -21 -50 -45 -68 -63 -50 -5 5 -17 10 -26 10 -22 0 -44 40 -42 75 1 17 -2
37 -8 45 -9 12 -10 10 -8 -9 4 -35 -22 -48 -72 -34 l-41 11 4 -34 c4 -31 3
-34 -21 -34 -48 0 -5 -25 46 -26 25 -1 48 -7 50 -13 4 -13 48 -15 57 -2 3 6
-3 14 -12 20 -10 6 -13 11 -8 11 15 0 55 -29 55 -41 0 -20 -41 -49 -71 -49
-25 0 -30 -3 -25 -17 6 -14 3 -14 -15 3 -11 10 -23 18 -25 16 -12 -10 -65 13
-92 39 -26 25 -30 35 -21 50 5 10 19 19 30 19 11 0 17 4 14 10 -3 5 -19 3 -39
-7 -41 -19 -81 -9 -108 28 -14 19 -18 46 -19 129 -2 91 1 111 20 148 21 41 23
43 36 26 7 -11 11 -22 9 -26 -3 -4 8 -5 24 -2 17 3 55 -1 85 -10 67 -19 67
-19 67 -2 0 16 -13 21 -72 32 -27 4 -38 11 -38 23 0 17 4 17 63 2 75 -19 70
-15 70 -45 0 -23 3 -24 31 -19 17 3 42 15 55 27 13 11 21 15 16 7 -16 -28 20
-4 40 26 20 30 20 30 32 9 7 -11 12 -31 13 -42z m-360 16 c0 -5 -5 -10 -11
-10 -5 0 -7 5 -4 10 3 6 8 10 11 10 2 0 4 -4 4 -10z m390 -99 c0 -35 -12 -45
-42 -35 -19 6 -19 7 -5 16 22 12 22 35 0 41 -10 3 -3 5 15 6 29 1 32 -2 32
-28z m-103 -53 c-3 -8 -6 -5 -6 6 -1 11 2 17 5 13 3 -3 4 -12 1 -19z m-117
-183 c0 -9 -9 -15 -22 -15 -22 1 -23 1 -4 15 25 19 26 19 26 0z"/>
<path d="M692 828 c-7 -7 -12 -16 -12 -21 0 -5 7 -1 16 7 17 18 39 22 29 5 -4
-5 -4 -21 -1 -35 11 -42 66 -25 66 21 1 19 1 19 14 3 16 -22 36 -23 36 -4 0
30 -123 49 -148 24z m65 -20 c-3 -8 -6 -5 -6 6 -1 11 2 17 5 13 3 -3 4 -12 1
-19z"/>
<path d="M790 619 c0 -5 5 -7 10 -4 6 3 10 8 10 11 0 2 -4 4 -10 4 -5 0 -10
-5 -10 -11z"/>
<path d="M835 550 c-18 -7 -18 -8 6 -15 15 -4 38 -5 50 -3 23 3 22 4 -6 14
-16 6 -39 8 -50 4z"/>
<path d="M608 471 c-11 -14 -11 -14 2 -4 12 9 20 7 39 -13 27 -29 41 -31 34
-6 -2 10 -17 23 -33 29 -24 9 -32 8 -42 -6z"/>
<path d="M562 430 c-7 -11 -8 -20 -3 -20 9 0 24 30 18 36 -1 2 -8 -6 -15 -16z"/>
<path d="M1096 332 c-3 -6 -19 -13 -35 -17 -26 -6 -40 -23 -55 -69 -6 -18 -10
-16 -43 15 l-37 34 32 -38 c27 -32 30 -40 20 -57 -7 -11 -19 -19 -27 -17 -8 1
-25 -14 -38 -33 -14 -19 -35 -40 -47 -47 -25 -13 -40 -39 -27 -47 17 -11 181
15 251 39 114 41 113 40 105 88 -4 23 -14 53 -21 67 -23 41 -71 92 -78 82z"/>
<path d="M501 283 c0 -12 -12 -39 -26 -59 -28 -41 -27 -43 28 -73 36 -20 38
-20 33 -3 -4 12 3 27 19 42 34 32 31 48 -9 65 -19 8 -37 23 -39 32 -4 14 -5
13 -6 -4z"/>
<path d="M590 176 c0 -3 21 -17 48 -32 26 -15 66 -41 90 -57 23 -15 48 -27 54
-25 6 2 -4 14 -23 26 -19 11 -46 30 -58 42 -13 11 -30 20 -38 20 -8 0 -27 7
-43 15 -17 9 -30 13 -30 11z"/>
</g>
</svg>
